<svg id="Icon_atom" data-name="Icon / atom" xmlns="http://www.w3.org/2000/svg" width="16" height="16" viewBox="0 0 16 16">
  <rect id="Icon_atom_Frame_Background_" data-name="Icon / atom [Frame Background]" width="16" height="16" fill="none"/>
  <path id="icon" d="M.4,7.677a10.052,10.052,0,0,1,.872-1.711A10.14,10.14,0,0,1,.4,4.255C-.206,2.682-.12,1.4.639.639A2.376,2.376,0,0,1,2.368,0a7.213,7.213,0,0,1,3.6,1.273A7.22,7.22,0,0,1,9.566,0a2.374,2.374,0,0,1,1.728.639c.759.759.845,2.043.24,3.615a10.052,10.052,0,0,1-.872,1.711,10.1,10.1,0,0,1,.872,1.711c.6,1.572.52,2.855-.24,3.615a2.376,2.376,0,0,1-1.728.639,7.213,7.213,0,0,1-3.6-1.273,7.22,7.22,0,0,1-3.6,1.273,2.374,2.374,0,0,1-1.728-.639C-.12,10.533-.206,9.25.4,7.677Zm9.511-.633A15.931,15.931,0,0,1,7.046,9.909a5.525,5.525,0,0,0,2.519.826,1.2,1.2,0,0,0,.882-.289c.393-.393.381-1.267-.031-2.339A8.341,8.341,0,0,0,9.909,7.045Zm-.69-1.079a14.366,14.366,0,0,0-1.5-1.756A14.109,14.109,0,0,0,5.966,2.723,14.212,14.212,0,0,0,2.713,5.966a14.366,14.366,0,0,0,1.5,1.756A14.109,14.109,0,0,0,5.966,9.209,14.212,14.212,0,0,0,9.219,5.966ZM7.046,2.023A15.833,15.833,0,0,1,9.909,4.887a8.342,8.342,0,0,0,.506-1.063c.413-1.072.424-1.946.031-2.339A1.207,1.207,0,0,0,9.565,1.2a5.533,5.533,0,0,0-2.519.826ZM2.023,4.887A15.833,15.833,0,0,1,4.886,2.023,5.525,5.525,0,0,0,2.367,1.2a1.2,1.2,0,0,0-.882.289c-.393.393-.381,1.267.031,2.339a8.341,8.341,0,0,0,.506,1.063Zm-.538,5.559a1.207,1.207,0,0,0,.882.289,5.528,5.528,0,0,0,2.519-.826A15.833,15.833,0,0,1,2.023,7.045a8.341,8.341,0,0,0-.506,1.063c-.412,1.072-.424,1.946-.031,2.339Z" transform="translate(2.034 2.034)" fill="#fff"/>
  <path id="icon-2" data-name="icon" d="M7.392,9.232a1.84,1.84,0,1,1,1.84,1.84,1.84,1.84,0,0,1-1.84-1.84Z" transform="translate(-1.231 -1.232)" fill="#fff"/>
</svg>
