<svg id="Attachment" xmlns="http://www.w3.org/2000/svg" width="23" height="24" viewBox="0 0 23 24">
  <path id="Icon_akar-attach" data-name="Icon akar-attach" d="M14.283,23.26A6.555,6.555,0,0,1,8,16.477V8.7a.94.94,0,1,1,1.875,0v7.781a4.6,4.6,0,0,0,4.408,4.759,4.6,4.6,0,0,0,4.408-4.759V6.859a2.74,2.74,0,0,0-2.626-2.835,2.74,2.74,0,0,0-2.626,2.835v8.832a.847.847,0,1,0,1.689,0V8.783a.94.94,0,1,1,1.875,0v6.908a2.837,2.837,0,0,1-2.719,2.936,2.837,2.837,0,0,1-2.719-2.936V6.859A4.7,4.7,0,0,1,16.065,2a4.7,4.7,0,0,1,4.5,4.859v9.618A6.555,6.555,0,0,1,14.283,23.26Z" transform="translate(-2.783 -0.63)" fill="#4badff"/>
  <rect id="Rectangle_663" data-name="Rectangle 663" width="23" height="24" fill="none"/>
</svg>
