<svg id="Attachment" xmlns="http://www.w3.org/2000/svg" width="23" height="24" viewBox="0 0 23 24">
  <path id="Icon_akar-attach" data-name="Icon akar-attach" d="M14.323,23.26A6.573,6.573,0,0,1,8,16.477V8.7a.946.946,0,1,1,1.887,0v7.781a4.612,4.612,0,0,0,4.437,4.759,4.612,4.612,0,0,0,4.437-4.759V6.859a2.748,2.748,0,0,0-2.643-2.835,2.748,2.748,0,0,0-2.643,2.835v8.832a.852.852,0,1,0,1.7,0V8.783a.946.946,0,1,1,1.887,0v6.908a2.845,2.845,0,0,1-2.737,2.936,2.845,2.845,0,0,1-2.737-2.936V6.859A4.709,4.709,0,0,1,16.117,2a4.709,4.709,0,0,1,4.53,4.859v9.618A6.573,6.573,0,0,1,14.323,23.26Z" transform="translate(-2.749 -0.63)" fill="#676774"/>
  <rect id="Rectangle_663" data-name="Rectangle 663" width="23" height="24" fill="none"/>
</svg>
