<svg id="Icon_copy" data-name="Icon / copy" xmlns="http://www.w3.org/2000/svg" width="20" height="20" viewBox="0 0 20 20">
  <rect id="Icon_copy_Frame_Background_" data-name="Icon / copy [Frame Background]" width="20" height="20" fill="none"/>
  <path id="icon" d="M16,1.6v8a1.6,1.6,0,0,1-1.6,1.6H11.2v3.2A1.6,1.6,0,0,1,9.6,16h-8A1.6,1.6,0,0,1,0,14.4v-8A1.6,1.6,0,0,1,1.6,4.8H4.8V1.6A1.6,1.6,0,0,1,6.4,0h8A1.6,1.6,0,0,1,16,1.6ZM9.6,14.4l0-8h-8v8ZM14.4,1.6h-8V4.8H9.6a1.6,1.6,0,0,1,1.6,1.6V9.6h3.2Z" transform="translate(2 2)" fill="#676774"/>
</svg>
