<svg id="Icon_phone" data-name="Icon / phone" xmlns="http://www.w3.org/2000/svg" width="24" height="24" viewBox="0 0 24 24">
  <rect id="Icon_phone_Frame_Background_" data-name="Icon / phone [Frame Background]" width="24" height="24" fill="none"/>
  <path id="icon" d="M18.712,14.294a1,1,0,0,1,0,1.414L16,18.42a1.976,1.976,0,0,1-1.4.586h-.028A15.309,15.309,0,0,1,4.3,14.708,15.3,15.3,0,0,1,0,4.44,2,2,0,0,1,.586,3.005L3.3.293a1,1,0,0,1,1.414,0l4,4a1,1,0,0,1,0,1.414L7.118,7.3a7.489,7.489,0,0,0,1.594,2.992A7.489,7.489,0,0,0,11.7,11.887L13.3,10.293a1,1,0,0,1,1.414,0ZM16.591,15l-2.586-2.586-1.294,1.293a.991.991,0,0,1-.912.271,10.158,10.158,0,0,1-4.5-2.271,10.158,10.158,0,0,1-2.271-4.5A1,1,0,0,1,5.3,6.293L6.591,5,4.005,2.414,2,4.419a13.242,13.242,0,0,0,3.712,8.874,13.239,13.239,0,0,0,8.873,3.712Z" transform="translate(2.995 2)" fill="rgba(103,103,116,0.2)"/>
</svg>
