<svg id="Icon_send" data-name="Icon / send" xmlns="http://www.w3.org/2000/svg" width="24" height="24" viewBox="0 0 24 24">
  <rect id="Icon_send_Frame_Background_" data-name="Icon / send [Frame Background]" width="24" height="24" fill="none"/>
  <path id="icon" d="M18.967,8.465a1,1,0,0,1-.422,1.441l-17.109,8a1.01,1.01,0,0,1-1.069-.13.994.994,0,0,1-.336-1.017L1.982,9,.031,1.243A1,1,0,0,1,.368.227,1.011,1.011,0,0,1,1.436.1l17.109,8a1,1,0,0,1,.422.369ZM15.752,9,2.5,2.8l.844,3.357L9.059,9l-5.717,2.84L2.5,15.2Z" transform="translate(3.019 2.999)" fill="#4badff"/>
</svg>
