<svg xmlns="http://www.w3.org/2000/svg" width="20" height="20" viewBox="0 0 20 20">
  <g id="Group_2261" data-name="Group 2261" transform="translate(-117 -4)">
    <rect id="Icon_volume-full_Frame_Background_" data-name="Icon / volume-full [Frame Background]" width="20" height="20" transform="translate(117 4)" fill="none"/>
    <g id="Group_2260" data-name="Group 2260" transform="translate(0.834)">
      <path id="icon" d="M14,12.444A6.275,6.275,0,0,0,17.268,7,6.275,6.275,0,0,0,14,1.556V0a7.619,7.619,0,0,1,4.9,7A7.619,7.619,0,0,1,14,14Z" transform="translate(115.762 7)" fill="#676774"/>
      <path id="icon-2" data-name="icon" d="M13.076,7a5.481,5.481,0,0,1-1.634,3.889V3.111A5.481,5.481,0,0,1,13.076,7ZM0,9.333V4.667A1.6,1.6,0,0,1,1.634,3.111h2.2l4.7-2.98A.853.853,0,0,1,9.375.093a.8.8,0,0,1,.315.286.75.75,0,0,1,.116.4V13.222a.75.75,0,0,1-.116.4.8.8,0,0,1-.315.286.856.856,0,0,1-.839-.039l-4.7-2.98h-2.2A1.6,1.6,0,0,1,0,9.333Zm1.634,0H4.086c.026,0,.048.012.074.015a.836.836,0,0,1,.312.09.537.537,0,0,1,.067.026l3.633,2.305V2.231L4.54,4.536c-.02.012-.046.014-.067.026a.871.871,0,0,1-.311.09c-.026,0-.049.015-.076.015H1.634Z" transform="translate(117.667 7)" fill="#676774"/>
    </g>
  </g>
</svg>
