<svg xmlns="http://www.w3.org/2000/svg" width="24" height="24" viewBox="0 0 24 24">
  <g id="Group_2298" data-name="Group 2298" transform="translate(-1432.929 -8)">
    <rect id="Rectangle_730" data-name="Rectangle 730" width="24" height="24" transform="translate(1432.929 8)" fill="none"/>
    <g id="Group_2296" data-name="Group 2296" transform="translate(1432.929 8)">
      <path id="Path_173" data-name="Path 173" d="M17.641,201.1l-1.377-.459a9.341,9.341,0,0,1-5.88-5.879l-.459-1.377a.856.856,0,0,0-1.625,0l-.459,1.377a9.341,9.341,0,0,1-5.879,5.88L.585,201.1a.856.856,0,0,0,0,1.625l1.377.459a9.341,9.341,0,0,1,5.88,5.879l.459,1.377a.857.857,0,0,0,.812.585h0a.856.856,0,0,0,.812-.585l.459-1.377a9.341,9.341,0,0,1,5.879-5.88l1.377-.459a.856.856,0,0,0,0-1.625Z" transform="translate(2.747 -189.773)" fill="#676774"/>
    </g>
  </g>
</svg>
