<svg id="Icon_sync" data-name="Icon / sync" xmlns="http://www.w3.org/2000/svg" width="20" height="20" viewBox="0 0 20 20">
  <rect id="Icon_sync_Frame_Background_" data-name="Icon / sync [Frame Background]" width="20" height="20" fill="none"/>
  <path id="icon" d="M7.768,7.659,3.884,3.829,7.768,0V2.949c.133.019.267.034.4.06A6.8,6.8,0,0,1,11.6,4.836a6.633,6.633,0,0,1,0,9.476l-1.373-1.354a4.737,4.737,0,0,0,0-6.769,4.855,4.855,0,0,0-2.453-1.3h-.01ZM0,9.573a6.6,6.6,0,0,1,.535-2.61A6.707,6.707,0,0,1,1.992,4.835L3.364,6.189A4.777,4.777,0,0,0,2.31,7.742a4.719,4.719,0,0,0,0,3.664,4.777,4.777,0,0,0,1.054,1.553,4.855,4.855,0,0,0,2.453,1.3c.034.008.07,0,.1.011v-2.9L9.8,15.2,5.92,19.031V16.213c-.165-.021-.331-.042-.493-.075A6.8,6.8,0,0,1,1.991,14.31a6.647,6.647,0,0,1-.829-.99,6.748,6.748,0,0,1-.627-1.139A6.617,6.617,0,0,1,0,9.573Z" transform="translate(3.203 0.484)" fill="#676774"/>
</svg>
