<svg id="Icon_globe" data-name="Icon / globe" xmlns="http://www.w3.org/2000/svg" width="24" height="24" viewBox="0 0 24 24">
  <rect id="Icon_globe_Frame_Background_" data-name="Icon / globe [Frame Background]" width="24" height="24" fill="none"/>
  <path id="icon" d="M20,10A10,10,0,1,1,10,0,10.011,10.011,0,0,1,20,10ZM16.455,5.293a8.013,8.013,0,0,0-3.08-2.536A14.67,14.67,0,0,1,15.167,9h2.764A8.013,8.013,0,0,0,16.455,5.293ZM10,2c-.175,0-.347.016-.519.026A12.754,12.754,0,0,0,7.03,9h6.127A12.991,12.991,0,0,0,10.53,2.027C10.354,2.016,10.179,2,10,2ZM3.565,5.264A8.013,8.013,0,0,0,2.069,9H5.03A15.142,15.142,0,0,1,6.688,2.727,8.013,8.013,0,0,0,3.565,5.264ZM3.536,14.7A8.01,8.01,0,0,0,6.6,17.23,15.669,15.669,0,0,1,5.043,11H2.069a8.01,8.01,0,0,0,1.467,3.7ZM10,18c.187,0,.369-.016.551-.028A12.2,12.2,0,0,0,13.154,11H7.041A11.975,11.975,0,0,0,9.45,17.973c.183.011.364.027.55.027Zm6.483-3.332A8,8,0,0,0,17.93,11H15.152a15.339,15.339,0,0,1-1.691,6.2A8.005,8.005,0,0,0,16.483,14.668Z" transform="translate(2 2)" fill="#676774"/>
</svg>
