<svg id="Icon_Youtube" data-name="Icon / Youtube" xmlns="http://www.w3.org/2000/svg" width="24" height="24" viewBox="0 0 24 24">
  <rect id="Icon_Youtube_Frame_Background_" data-name="Icon / Youtube [Frame Background]" width="24" height="24" fill="none"/>
  <path id="Vector" d="M20.014,7.034a26.378,26.378,0,0,1-.417,4.812,2.515,2.515,0,0,1-1.767,1.763c-1.566.41-7.831.4-7.831.4s-6.248-.007-7.83-.437A2.506,2.506,0,0,1,.406,11.81,26.335,26.335,0,0,1,0,7,26.5,26.5,0,0,1,.417,2.182,2.56,2.56,0,0,1,2.183.4C3.75-.007,10.014,0,10.014,0s6.265.007,7.831.437A2.506,2.506,0,0,1,19.607,2.2,25.084,25.084,0,0,1,20.014,7.034ZM13.222,7.01,8.015,4.005l-.005,6Z" transform="translate(1.986 5)" fill="#676774"/>
</svg>
